<svg width="8" height="14" viewBox="0 0 8 14" fill="none" xmlns="http://www.w3.org/2000/svg">
<g clip-path="url(#clip0_1047_51)">
<path d="M0 5.425C0 5.32835 0.0814091 5.25035 0.181437 5.24664C2.77944 5.15037 4.98417 2.99554 5.07226 0.175441C5.07528 0.0788352 5.15615 0 5.25625 0H7.79375C7.89385 0 7.97519 0.0785759 7.97312 0.175205C7.9113 3.06506 6.32378 5.63027 3.94659 7C6.32378 8.36973 7.9113 10.935 7.97312 13.8248C7.97519 13.9214 7.89385 14 7.79375 14H5.25625C5.15615 14 5.07528 13.9212 5.07226 13.8246C4.98417 11.0044 2.77944 8.84966 0.181437 8.75333C0.0814091 8.74965 0 8.67165 0 8.575V5.425Z" fill="#7575ED"/>
</g>
<defs>
<clipPath id="clip0_1047_51">
<rect width="8" height="14" fill="white"/>
</clipPath>
</defs>
</svg>
