<svg width="8" height="14" viewBox="0 0 8 14" fill="none" xmlns="http://www.w3.org/2000/svg">
<g clip-path="url(#clip0_1047_54)">
<path d="M7.69412 5.425C7.69412 5.32835 7.61753 5.25035 7.52337 5.24664C5.07815 5.15037 3.00312 2.99554 2.92021 0.175441C2.9174 0.0788352 2.84132 0 2.74707 0H0.358831C0.264615 0 0.188063 0.0785759 0.190008 0.175205C0.248196 3.06506 1.7423 5.63027 3.97965 7C1.7423 8.36973 0.248196 10.935 0.190008 13.8248C0.188063 13.9214 0.264615 14 0.358831 14H2.74707C2.84132 14 2.9174 13.9212 2.92021 13.8246C3.00312 11.0044 5.07815 8.84966 7.52337 8.75333C7.61753 8.74965 7.69412 8.67165 7.69412 8.575V5.425Z" fill="#7575ED"/>
</g>
<defs>
<clipPath id="clip0_1047_54">
<rect width="8" height="14" fill="white"/>
</clipPath>
</defs>
</svg>
